<svg width="24" height="24" viewBox="0 0 24 24" fill="none" xmlns="http://www.w3.org/2000/svg">
<path fill-rule="evenodd" clip-rule="evenodd" d="M3 14C3 13.7348 3.10536 13.4804 3.29289 13.2929C3.48043 13.1054 3.73478 13 4 13H16C16.7956 13 17.5587 12.6839 18.1213 12.1213C18.6839 11.5587 19 10.7956 19 10V6C19 5.73478 19.1054 5.48043 19.2929 5.29289C19.4804 5.10536 19.7348 5 20 5C20.2652 5 20.5196 5.10536 20.7071 5.29289C20.8946 5.48043 21 5.73478 21 6V10C21 11.3261 20.4732 12.5979 19.5355 13.5355C18.5979 14.4732 17.3261 15 16 15H4C3.73478 15 3.48043 14.8946 3.29289 14.7071C3.10536 14.5196 3 14.2652 3 14Z" fill="currentColor"/>
<path fill-rule="evenodd" clip-rule="evenodd" d="M3.293 14.707C3.10553 14.5195 3.00021 14.2652 3.00021 14C3.00021 13.7348 3.10553 13.4805 3.293 13.293L7.293 9.293C7.4816 9.11084 7.7342 9.01005 7.9964 9.01233C8.2586 9.0146 8.50941 9.11977 8.69482 9.30518C8.88023 9.49059 8.9854 9.7414 8.98767 10.0036C8.98995 10.2658 8.88916 10.5184 8.707 10.707L5.414 14L8.707 17.293C8.80251 17.3852 8.87869 17.4956 8.9311 17.6176C8.98351 17.7396 9.0111 17.8708 9.01225 18.0036C9.0134 18.1364 8.9881 18.2681 8.93782 18.391C8.88754 18.5138 8.81329 18.6255 8.71939 18.7194C8.6255 18.8133 8.51385 18.8875 8.39095 18.9378C8.26806 18.9881 8.13638 19.0134 8.0036 19.0123C7.87082 19.0111 7.7396 18.9835 7.6176 18.9311C7.49559 18.8787 7.38525 18.8025 7.293 18.707L3.293 14.707Z" fill="currentColor"/>
</svg>
